HIERARCHY
ROOT Hips
{
	OFFSET 0.00000 0.00000 0.00000
	CHANNELS 6 Xposition Yposition Zposition Zrotation Yrotation Xrotation 
	JOINT LHipJoint
	{
		OFFSET 0 0 0
		CHANNELS 3 Zrotation Yrotation Xrotation
		JOINT LeftUpLeg
		{
			OFFSET 1.36337 -1.57426 1.11036
			CHANNELS 3 Zrotation Yrotation Xrotation
			JOINT LeftLeg
			{
				OFFSET 2.38468 -6.55187 0.00000
				CHANNELS 3 Zrotation Yrotation Xrotation
				JOINT LeftFoot
				{
					OFFSET 2.37166 -6.51609 0.00000
					CHANNELS 3 Zrotation Yrotation Xrotation
					JOINT LeftToeBase
					{
						OFFSET 0.29078 -0.79891 2.01393
						CHANNELS 3 Zrotation Yrotation Xrotation
						End Site
						{
							OFFSET 0.00000 -0.00000 1.07924
						}
					}
				}
			}
		}
	}
	JOINT RHipJoint
	{
		OFFSET 0 0 0
		CHANNELS 3 Zrotation Yrotation Xrotation
		JOINT RightUpLeg
		{
			OFFSET -1.36349 -1.57426 1.11036
			CHANNELS 3 Zrotation Yrotation Xrotation
			JOINT RightLeg
			{
				OFFSET -2.29562 -6.30717 0.00000
				CHANNELS 3 Zrotation Yrotation Xrotation
				JOINT RightFoot
				{
					OFFSET -2.40985 -6.62100 0.00000
					CHANNELS 3 Zrotation Yrotation Xrotation
					JOINT RightToeBase
					{
						OFFSET -0.23197 -0.63733 1.92232
						CHANNELS 3 Zrotation Yrotation Xrotation
						End Site
						{
							OFFSET -0.00000 -0.00000 1.01562
						}
					}
				}
			}
		}
	}
	JOINT LowerBack
	{
		OFFSET 0 0 0
		CHANNELS 3 Zrotation Yrotation Xrotation
		JOINT Spine
		{
			OFFSET -0.08565 2.03602 -0.24562
			CHANNELS 3 Zrotation Yrotation Xrotation
			JOINT Spine1
			{
				OFFSET -0.00036 2.05693 0.00216
				CHANNELS 3 Zrotation Yrotation Xrotation
				JOINT Neck
				{
					OFFSET 0 0 0
					CHANNELS 3 Zrotation Yrotation Xrotation
					JOINT Neck1
					{
						OFFSET -0.03664 1.69515 0.31789
						CHANNELS 3 Zrotation Yrotation Xrotation
						JOINT Head
						{
							OFFSET 0.00932 1.70181 -0.46013
							CHANNELS 3 Zrotation Yrotation Xrotation
							End Site
							{
								OFFSET 0.01243 1.77620 -0.19377
							}
						}
					}
				}
				JOINT LeftShoulder
				{
					OFFSET 0 0 0
					CHANNELS 3 Zrotation Yrotation Xrotation
					JOINT LeftArm
					{
						OFFSET 3.74344 0.81315 -0.36647
						CHANNELS 3 Zrotation Yrotation Xrotation
						JOINT LeftForeArm
						{
							OFFSET 4.97185 -0.00000 -0.00000
							CHANNELS 3 Zrotation Yrotation Xrotation
							JOINT LeftHand
							{
								OFFSET 3.35811 -0.00000 0.00000
								CHANNELS 3 Zrotation Yrotation Xrotation
								JOINT LeftFingerBase
								{
									OFFSET 0 0 0
									CHANNELS 3 Zrotation Yrotation Xrotation
									JOINT LeftHandIndex1
									{
										OFFSET 0.62278 -0.00000 0.00000
										CHANNELS 3 Zrotation Yrotation Xrotation
										End Site
										{
											OFFSET 0.50210 -0.00000 0.00000
										}
									}
								}
								JOINT LThumb
								{
									OFFSET 0 0 0
									CHANNELS 3 Zrotation Yrotation Xrotation
									End Site
									{
										OFFSET 0.50976 -0.00000 0.50976
									}
								}
							}
						}
					}
				}
				JOINT RightShoulder
				{
					OFFSET 0 0 0
					CHANNELS 3 Zrotation Yrotation Xrotation
					JOINT RightArm
					{
						OFFSET -3.75385 0.50666 -0.06525
						CHANNELS 3 Zrotation Yrotation Xrotation
						JOINT RightForeArm
						{
							OFFSET -4.96493 -0.00000 -0.00000
							CHANNELS 3 Zrotation Yrotation Xrotation
							JOINT RightHand
							{
								OFFSET -3.34929 -0.00000 0.00000
								CHANNELS 3 Zrotation Yrotation Xrotation
								JOINT RightFingerBase
								{
									OFFSET 0 0 0
									CHANNELS 3 Zrotation Yrotation Xrotation
									JOINT RightHandIndex1
									{
										OFFSET -0.63804 -0.00000 0.00000
										CHANNELS 3 Zrotation Yrotation Xrotation
										End Site
										{
											OFFSET -0.51441 -0.00000 0.00000
										}
									}
								}
								JOINT RThumb
								{
									OFFSET 0 0 0
									CHANNELS 3 Zrotation Yrotation Xrotation
									End Site
									{
										OFFSET -0.52226 -0.00000 0.52226
									}
								}
							}
						}
					}
				}
			}
		}
	}
}
MOTION
Frames: 6
Frame Time: .0083333
17.0487 14.9198 -15.6701 -113.3050 -82.4939 -959.4660 0.0000 0.0000 0.0000 -15.8932 5.9176 -15.5952 20.8250 19.9837 92.4129 -0.0253 8.9688 -12.3063 0.0011 0.2149 0.5906 0.0000 0.0000 0.0000 18.2806 1.8909 -32.6534 -8.1365 -16.2187 53.0529 -1.9240 2.8454 -25.4968 -0.6554 5.1782 -14.4177 8.7134 -3.0353 15.4504 2.2058 -2.8673 4.6846 -2.0289 -1.5614 -3.9298 6.5598 13.0473 -23.0270 -19.7042 21.3321 20.9701 -4.4159 7.3282 14.2112 -0.0000 -0.0000 0.0000 -78.9602 8.9177 51.1148 37.5913 -46.5763 -16.6681 -0.0000 0.0000 -19.7749 29.5734 -2.5544 -1.4488 -7.1250 0.0000 -0.0000 2.2816 27.0417 -0.9956 -0.0000 -0.0000 0.0000 60.9483 -12.9297 49.9065 -41.4397 48.9001 -19.5173 0.0000 -0.0000 -6.7460 -8.6954 -16.9909 2.5589 7.1250 -0.0000 -0.0000 18.0462 -46.3324 -0.6131
16.4505 14.9497 -15.6691 -107.5440 -81.9667 -965.2200 0.0000 0.0000 0.0000 -14.1856 4.6668 -22.0824 22.2287 19.8805 96.5288 0.1775 7.3163 -13.7331 0.0046 0.4387 1.2054 0.0000 0.0000 0.0000 19.2378 1.2583 -28.9279 -7.7114 -15.9028 51.5163 -2.1548 2.4217 -27.1366 -0.5047 4.5542 -12.6413 9.1165 -2.4780 15.4948 2.4109 -2.0446 4.5050 -2.1918 -1.1670 -4.0649 6.7851 12.7121 -22.7225 -19.4410 20.8228 21.5718 -4.5093 7.1453 14.3021 -0.0000 0.0000 0.0000 -78.6624 11.5927 51.6094 36.4708 -45.8342 -15.8593 -0.0000 0.0000 -19.3506 29.7862 -2.4458 -1.3992 -7.1250 0.0000 -0.0000 2.4491 27.1601 -1.0620 -0.0000 0.0000 0.0000 60.9167 -10.5272 49.7414 -41.0150 48.6599 -19.1979 0.0000 -0.0000 -5.4248 -11.1316 -16.3563 3.1716 7.1250 -0.0000 -0.0000 15.6221 -46.0257 -0.4053
15.8339 15.0104 -15.6549 -102.0880 -81.6079 -970.7360 0.0000 0.0000 0.0000 -13.0559 3.2852 -28.2707 22.8667 19.8018 98.4083 0.2556 7.0902 -14.6753 0.0239 0.9976 2.7423 0.0000 0.0000 0.0000 20.0554 0.1418 -24.8660 -7.0571 -15.3798 49.0898 -2.2182 0.4888 -28.0652 -0.5456 4.7321 -13.1461 9.4954 -1.8454 15.2967 2.3620 -1.1786 4.4942 -2.6280 -0.7347 -3.8818 6.3165 12.3400 -23.4844 -17.9112 20.2435 22.8037 -3.9791 6.9293 14.5734 0.0000 -0.0000 0.0000 -77.4324 14.2305 52.6518 36.8325 -46.0772 -16.1193 -0.0000 0.0000 -19.6105 27.6559 -0.4232 -0.2218 -7.1250 0.0000 -0.0000 0.8553 29.5014 -0.3233 0.0000 -0.0000 0.0000 61.5761 -8.9532 48.6327 -42.2093 49.3257 -20.0991 0.0000 -0.0000 -5.0506 -11.6170 -16.2021 3.2830 7.1250 -0.0000 -0.0000 15.1313 -45.9355 -0.3575
15.1937 15.1226 -15.6264 -95.4826 -81.5299 -977.1180 0.0000 0.0000 0.0000 -12.6919 1.4708 -34.1991 22.7238 19.8212 97.9866 0.4644 6.9880 -17.2964 0.0166 -0.8331 -2.2896 0.0000 0.0000 0.0000 20.5143 -1.2033 -20.5438 -6.1261 -14.5494 45.4856 -2.2213 -0.4818 -28.3964 -0.7663 5.5900 -15.5993 9.5659 -1.2514 14.6754 2.1879 -0.4502 4.4383 -2.9955 -0.3556 -3.5240 6.0783 11.8478 -24.3085 -17.0270 19.4954 23.5816 -3.7639 6.6121 14.7949 0.0000 0.0000 0.0000 -75.7523 16.9128 54.1064 38.0559 -46.8750 -17.0064 -0.0000 0.0000 -19.3461 25.8479 -4.0169 -1.9437 -7.1250 0.0000 -0.0000 -0.5943 25.5179 0.2803 0.0000 0.0000 0.0000 62.1120 -8.4157 47.3046 -45.0632 50.7994 -22.2877 0.0000 -0.0000 -5.1438 -9.5564 -17.6822 2.9273 7.1250 -0.0000 -0.0000 17.5250 -47.1058 -0.9385
14.5222 15.2567 -15.5849 -89.3549 -81.3595 -982.7600 0.0000 0.0000 0.0000 -12.3790 -0.5466 -38.9461 21.8248 19.9200 95.3421 0.7349 6.3639 -19.7331 0.0024 0.3188 0.8760 0.0000 0.0000 0.0000 20.8956 -2.2406 -16.0336 -5.1049 -13.5010 41.2740 -2.1024 -0.4399 -27.6117 -1.1052 6.6796 -18.7697 9.3363 -0.6326 13.5801 2.1359 0.2309 4.3123 -3.0417 0.0094 -2.9871 6.2065 11.4772 -24.9076 -17.1786 19.0506 24.0638 -3.9569 6.3458 15.1126 -0.0000 0.0000 0.0000 -74.2781 19.6420 55.6432 39.4594 -47.7464 -18.0381 -0.0000 0.0000 -18.2344 23.5959 -5.7568 -2.5088 -7.1250 0.0000 -0.0000 -2.3082 23.7026 1.1866 -0.0000 0.0000 0.0000 62.3131 -8.1421 47.3438 -48.3025 52.2875 -24.8249 0.0000 -0.0000 -9.0849 -11.2459 -18.1891 3.5517 7.1250 -0.0000 -0.0000 16.1680 -47.8228 -1.1545
13.8089 15.4560 -15.5278 -83.6073 -81.4626 -988.1670 0.0000 0.0000 0.0000 -12.6358 -2.0417 -42.4130 20.1904 19.9991 90.5568 0.9533 5.8622 -21.4590 0.0056 0.4843 1.3307 0.0000 0.0000 0.0000 20.7705 -3.1380 -10.8719 -4.0316 -12.2023 36.4514 -1.7508 -0.7962 -25.3258 -1.3106 7.2517 -20.4631 8.5250 0.0597 12.3713 2.1034 0.9370 4.1963 -2.7218 0.3893 -2.3903 5.2943 10.9278 -25.9373 -15.8900 18.4276 25.3628 -3.4492 6.0266 15.5174 -0.0000 0.0000 0.0000 -72.8119 22.2450 57.5664 40.7196 -48.4905 -18.9763 -0.0000 0.0000 -16.8438 21.6647 -7.7253 -3.0566 -7.1250 0.0000 -0.0000 -3.7509 21.6820 2.1042 -0.0000 0.0000 0.0000 62.3381 -8.4573 47.4558 -51.5770 53.6120 -27.4386 0.0000 -0.0000 -12.7813 -12.3708 -17.9324 3.8634 7.1250 -0.0000 -0.0000 15.0358 -47.7273 -1.0339
